<?xml version="1.0" encoding="UTF-8"?>
<svg id="Layer_1" data-name="Layer 1" xmlns="http://www.w3.org/2000/svg" version="1.1" viewBox="0 0 1920 800">
  <defs>
    <style>
      .cls-1 {
        fill: #81cdc1;
      }

      .cls-1, .cls-2, .cls-3, .cls-4, .cls-5, .cls-6, .cls-7, .cls-8, .cls-9, .cls-10, .cls-11, .cls-12, .cls-13 {
        stroke-width: 0px;
      }

      .cls-1, .cls-7, .cls-10, .cls-13 {
        fill-rule: evenodd;
      }

      .cls-2, .cls-9 {
        fill: #000;
      }

      .cls-3 {
        fill: #892b29;
      }

      .cls-4 {
        opacity: .4;
      }

      .cls-4, .cls-9 {
        isolation: isolate;
      }

      .cls-4, .cls-12 {
        fill: #fff;
      }

      .cls-5 {
        fill: #f5f5f5;
      }

      .cls-6 {
        fill: #9f5b53;
      }

      .cls-7 {
        fill: #953867;
      }

      .cls-8 {
        fill: #263238;
      }

      .cls-9 {
        opacity: .2;
      }

      .cls-10 {
        fill: #f26132;
      }

      .cls-11 {
        fill: #407bff;
      }

      .cls-13 {
        fill: #d5ead0;
      }
    </style>
  </defs>
  <g>
    <path class="cls-13" d="M.87,1h2.39c-.81.64-1.6,1.28-2.39,1.94v-1.94h0ZM156.74,1c3.82,3.02,7.46,6.25,10.9,9.69,22.43,22.43,36.3,53.41,36.3,87.63s-13.87,65.21-36.3,87.63c-22.43,22.43-53.41,36.3-87.63,36.3-30.09,0-57.67-10.72-79.13-28.55v4.1c21.71,17.29,49.21,27.63,79.13,27.63,35.1,0,66.88-14.23,89.88-37.23,23-23,37.23-54.78,37.23-89.88s-14.23-66.88-37.23-89.88c-2.59-2.59-5.3-5.08-8.11-7.44h-5.03Z"/>
    <path class="cls-13" d="M34.54,1h8.13C28.91,6.28,16.55,14.4,6.31,24.64c-1.89,1.89-3.71,3.85-5.45,5.88v-4.79c1.04-1.14,2.11-2.25,3.2-3.34C12.85,13.6,23.15,6.33,34.54,1h0ZM117.32,1c13.76,5.28,26.12,13.4,36.36,23.64,18.86,18.86,30.52,44.91,30.52,73.69s-11.66,54.83-30.52,73.68c-18.86,18.86-44.91,30.52-73.69,30.52s-54.83-11.66-73.68-30.52c-1.89-1.89-3.71-3.85-5.45-5.88v4.79c1.04,1.14,2.11,2.25,3.2,3.34,19.43,19.43,46.28,31.45,75.93,31.45s56.5-12.02,75.93-31.45c19.43-19.43,31.45-46.28,31.45-75.93s-12.02-56.5-31.45-75.93c-8.79-8.79-19.09-16.06-30.48-21.39h-8.13Z"/>
    <path class="cls-13" d="M.87,136.09v-8.12c4.27,11.4,10.94,21.64,19.39,30.09,15.29,15.29,36.41,24.74,59.74,24.74s44.45-9.46,59.74-24.74c15.29-15.29,24.74-36.41,24.74-59.74s-9.46-44.45-24.74-59.74c-15.29-15.29-36.41-24.74-59.74-24.74s-44.45,9.46-59.74,24.74C11.81,47.04,5.14,57.27.87,68.68v-8.12c4.32-9.04,10.14-17.22,17.14-24.22,15.86-15.86,37.78-25.68,61.99-25.68s46.12,9.81,61.99,25.68c15.86,15.86,25.68,37.78,25.68,61.99s-9.81,46.12-25.68,61.99c-15.86,15.86-37.78,25.68-61.99,25.68s-46.12-9.81-61.99-25.68c-7-7-12.82-15.18-17.14-24.22Z"/>
    <path class="cls-13" d="M80,30.38c18.76,0,35.74,7.6,48.04,19.9,12.29,12.29,19.9,29.28,19.9,48.04s-7.6,35.74-19.9,48.04c-12.29,12.29-29.28,19.9-48.04,19.9s-35.74-7.6-48.04-19.9c-12.29-12.29-19.9-29.28-19.9-48.04s7.6-35.74,19.9-48.04c12.29-12.29,29.28-19.9,48.04-19.9h0ZM125.79,52.53c-11.72-11.72-27.91-18.97-45.79-18.97s-34.07,7.25-45.79,18.97c-11.72,11.72-18.97,27.91-18.97,45.79s7.25,34.07,18.97,45.79c11.72,11.72,27.91,18.97,45.79,18.97s34.07-7.25,45.79-18.97c11.72-11.72,18.97-27.91,18.97-45.79s-7.25-34.07-18.97-45.79Z"/>
    <path class="cls-13" d="M80,50.11c13.31,0,25.37,5.4,34.09,14.12,8.72,8.72,14.12,20.78,14.12,34.09s-5.4,25.37-14.12,34.09c-8.72,8.72-20.78,14.12-34.09,14.12s-25.37-5.4-34.09-14.12c-8.72-8.72-14.12-20.78-14.12-34.09s5.4-25.37,14.12-34.09c8.72-8.72,20.78-14.12,34.09-14.12h0ZM111.84,66.48c-8.15-8.15-19.41-13.19-31.84-13.19s-23.69,5.04-31.84,13.19c-8.15,8.15-13.19,19.41-13.19,31.84s5.04,23.69,13.19,31.84c8.15,8.15,19.41,13.19,31.84,13.19s23.69-5.04,31.84-13.19c8.15-8.15,13.19-19.41,13.19-31.84s-5.04-23.69-13.19-31.84Z"/>
  </g>
  <path class="cls-7" d="M1917.5,426.26c-44.5,68.49-108.92,139.51-174.76,142.09-212.06,8.31-288.83-220.75-479.4,231.65h654.16v-373.74Z"/>
  <path class="cls-1" d="M1769.79,217.56c0,52.3,73.85,119.46,91.29,191.43,7.56,31.21,4.51,63.32-1.37,94.24-7.68,40.38-20.18,78.73-20.18,110.39,0,55.89,38.99,90.9,77.97,125.91V90.38c-73.85,37.44-147.71,74.88-147.71,127.18Z"/>
  <path class="cls-10" d="M1767.93,800c-63.93-92.43-127.86-184.86-197.65-184.86s-145.43,92.43-214.98,111.79c-25.03,6.97-49.28,4.47-72.34-1.58-41.01-10.76-78.29-32.76-109.65-32.76-49.01,0-83.57,53.7-118.14,107.41h712.76Z"/>
  <g>
    <g id="freepik--Shadow--inject-74">
      <ellipse id="freepik--path--inject-74" class="cls-5" cx="1468.55" cy="776.63" rx="384.49" ry="22.45"/>
    </g>
    <g id="freepik--character-3--inject-74">
      <path class="cls-6" d="M1712.88,414.67l-11.76-5.57s-5.95-11.38-7.69-13.21-10.17,5.26-10.17,6.48,6.11,12.73,7.69,13.43c2.36.35,4.76.35,7.12,0l11.18,5.41,3.63-6.54Z"/>
      <path class="cls-6" d="M1740.32,344.13l2.36-8.43s3.73-10.99,3.33-13.52c-.73-3-1.67-5.95-2.82-8.82,0,0-10.31,12.55-10.31,14.12s4.09,7.26,4.09,7.26l-1.98,9.4h5.33Z"/>
      <path class="cls-11" d="M1749.39,406.92s-8.88-11.05-11.5-21.32c-2.62-10.27,5.29-43.63,5.29-43.63l-8.35-2.22s-9.92,34.13-10.25,46.58c-.34,12.45,18.18,49,18.18,49l6.62-28.42Z"/>
      <path class="cls-9" d="M1744.01,429.84l-1.27,5.41s-6.39-12.59-11.6-25.52c5.43,3.9,9.52,9.38,11.72,15.69.5,1.44.89,2.92,1.15,4.42Z"/>
      <path class="cls-11" d="M1796.42,431.11c-.11,2.3-.39,4.6-.83,6.86-.91,4.96-2.46,10.81-4.22,17.25-.95,3.39-1.98,7.02-2.9,10.85-4.42,17.19-6.82,24.03-10.09,45.99l-62.76-14.89c3.39-18.79,8.56-37.22,15.45-55.03,1.82-4.74,3.97-9.48,6.13-14.16,3.47-7.34,7.55-14.37,12.2-21.02,0,0,10.15,9.28,42.04,14.85,3.87.59,5.2,3.97,5,9.3Z"/>
      <path class="cls-9" d="M1788.53,423.95c0,1.98,7.52,11.42,7.06,13.88-.85.58-1.86,1.21-3.01,1.98-21.24,12.35-49.1,6.09-61.47,2.26,1.82-4.74,5.95-13.45,8.09-18.12l14.89,3.31s24.35-5.55,34.45-3.31Z"/>
      <path class="cls-11" d="M1763.01,410.7c2.28-.87,21,3.79,19.61,4.18s-8.37,21.81-18.14,20.21c-9.78-1.61-9.6-21.3-1.47-24.39Z"/>
      <polygon class="cls-6" points="1678.25 761.6 1666.47 764.16 1659.59 737.07 1671.39 734.51 1678.25 761.6"/>
      <path class="cls-8" d="M1663.54,759.24h14.65c.49,0,.92.35,1.01.83l2.38,10.73c.22.95-.38,1.9-1.33,2.11-.01,0-.03,0-.04,0h-.4c-4.74,0-8.19-.38-14.14-.38-3.67,0-14.73.38-19.83.38s-5.71-5-3.65-5.45c9.3-1.98,16.3-4.84,19.28-7.5.56-.51,1.3-.78,2.06-.73Z"/>
      <path class="cls-11" d="M1659.55,761.36c-.82.06-1.64-.16-2.32-.61-.45-.37-.68-.95-.59-1.53-.02-.34.17-.66.48-.81,1.35-.69,5.24,1.71,5.67,1.98.1.05.16.16.14.28-.01.12-.1.21-.22.24-1.03.27-2.09.42-3.15.46ZM1657.75,758.87c-.12-.04-.24-.04-.36,0,0,0-.18.1-.2.34-.04.38.11.76.4,1.01,1.35.62,2.88.69,4.28.22-1.26-.78-2.66-1.32-4.12-1.57Z"/>
      <path class="cls-11" d="M1662.63,760.93h-.14c-1.23-.67-3.65-3.33-3.41-4.6.09-.44.48-.75.93-.75.44-.06.88.08,1.21.38,1.39,1.13,1.69,4.6,1.71,4.76,0,.11-.05.21-.14.26-.06.02-.12,0-.16-.04ZM1660.21,756.03h-.14c-.38,0-.4.22-.42.3-.16.79,1.39,2.8,2.62,3.73-.07-1.35-.54-2.65-1.37-3.73-.18-.19-.43-.3-.69-.3Z"/>
      <path class="cls-8" d="M1778.89,513.7s-10.17,48.51-33.97,61.47c-2.73,1.54-5.72,2.55-8.82,2.99,0,0-24.13,9.92-45,19.29-12.69,5.73-24.17,11.32-28.28,14.46-10.87,8.27,15.75,137.37,15.75,137.37l-18.09.2s-38.05-114.3-31.73-144.31c6.33-30,74.62-75.93,74.62-75.93l10.51-28.91,65,13.37Z"/>
      <path class="cls-9" d="M1744.92,575.24c-2.73,1.54-5.72,2.55-8.82,2.99,0,0-24.13,9.92-45,19.29,13.43-24.69,37.36-40.73,37.36-40.73l16.46,18.44Z"/>
      <polygon class="cls-6" points="1829.88 761.6 1818.1 764.16 1811.22 737.07 1823.02 734.51 1829.88 761.6"/>
      <path class="cls-8" d="M1815.16,759.24h14.65c.49,0,.92.35,1.01.83l2.38,10.73c.22.95-.38,1.9-1.33,2.11-.01,0-.03,0-.04,0h-.4c-4.74,0-8.19-.38-14.14-.38-3.67,0-14.73.38-19.83.38s-5.71-5-3.65-5.45c9.3-1.98,16.3-4.84,19.28-7.5.56-.51,1.3-.78,2.06-.73Z"/>
      <path class="cls-11" d="M1811.18,761.36c-.82.06-1.64-.16-2.32-.61-.45-.37-.68-.95-.59-1.53-.02-.34.17-.66.48-.81,1.35-.69,5.24,1.71,5.67,1.98.1.05.16.16.14.28-.01.12-.1.21-.22.24-1.03.27-2.09.42-3.15.46ZM1809.37,758.87c-.12-.04-.24-.04-.36,0,0,0-.18.1-.2.34-.04.38.11.76.4,1.01,1.35.62,2.88.69,4.28.22-1.26-.78-2.66-1.32-4.12-1.57Z"/>
      <path class="cls-11" d="M1814.25,760.93h-.14c-1.23-.67-3.65-3.33-3.41-4.6.09-.44.48-.75.93-.75.44-.06.88.08,1.21.38,1.39,1.13,1.69,4.6,1.71,4.76,0,.11-.05.21-.14.26-.06.02-.12,0-.16-.04ZM1811.83,756.03h-.22c-.38,0-.4.22-.42.3-.16.79,1.39,2.8,2.62,3.73-.08-1.37-.58-2.69-1.43-3.77-.15-.14-.35-.24-.56-.26Z"/>
      <path class="cls-6" d="M1782.96,420.98c-2.95,1.98-16.58,1.23-16.58,1.23l-6.33,6.92-.61-11.44s-4.26-1.76-3.09-2.99c3,.22,5.96-.77,8.21-2.76,2.76-2.7,3.29-7.04,3.25-11.34v-.16h0l11.64-5.95,8.05-4.14c-3.79,8.17-9.2,23.5-4.54,30.64Z"/>
      <path class="cls-9" d="M1783.3,397.2c-3.85,9.74-13.88,14.08-18.82,14.71,2.76-2.7,3.29-7.04,3.25-11.34,0-.06,0-.12,0-.18l11.64-5.95c.02,1.59,4.48,1.27,3.93,2.76Z"/>
      <path class="cls-8" d="M1790.69,396.8s7.56,3.97,10.07-.77c2.52-4.74-1.07-5.02,2.64-6.72,3.71-1.71,8.98-2.9,7.77-6.48s-4.96-3.97-.79-7.93c4.16-3.97,5.08-9.56-1.15-10.65s-3.85-5.95-4.16-7.93-3.81-3.37-7.6-2.58-5.37-4.82-7.71-6.56-5.57.4-6.43,2.76-3.09-.77-6.43-1.17-2.56,3.11-3.59,6.39-3.07,1.15-5.45,3.85c-2.38,2.7-2.6,21.1,22.82,37.82Z"/>
      <path class="cls-6" d="M1793.98,385.5c-5.69,8.92-8.92,14.81-15.31,17.71-.86.4-1.75.73-2.66.99-12.41,3.65-22.65-8.31-19.37-20.15.62-2.14,1.42-4.22,2.38-6.23,4.44-9.3,12.99-18.82,23.2-17.57,8.96,1.02,15.39,9.11,14.36,18.07,0,.01,0,.02,0,.04-.3,2.55-1.19,4.99-2.6,7.14Z"/>
      <path class="cls-8" d="M1776.51,379.55c-.42.89-1.31,1.29-1.86.99s-.61-1.27-.16-2.1,1.33-1.29,1.86-.99.63,1.29.16,2.1Z"/>
      <path class="cls-8" d="M1766.9,374.25c-.26.78-1.08,1.21-1.86.97-.54-.32-.61-1.25-.14-2.1s1.31-1.29,1.86-.97.59,1.29.14,2.1Z"/>
      <path class="cls-3" d="M1769.73,376.38c-2.46,2.03-5.19,3.71-8.11,5,.71,1.5,2.04,2.61,3.65,3.03l4.46-8.03Z"/>
      <path class="cls-8" d="M1782.26,377.33c-.21.03-.42-.05-.56-.22-.81-1.2-2.16-1.94-3.61-1.98-.31.06-.61-.15-.67-.46-.06-.31.15-.61.46-.67.07-.01.14-.01.21,0h0c1.83.01,3.55.92,4.58,2.44.19.24.16.59-.08.78,0,0-.01,0-.02.01h0c-.1.06-.21.09-.32.1Z"/>
      <path class="cls-8" d="M1767.59,389.72h0c2.7.88,5.66.38,7.93-1.33.1-.12.1-.3,0-.42-.12-.11-.3-.11-.42,0h0c-2.15,1.54-4.9,1.98-7.42,1.19-.13-.06-.28,0-.34.13,0,.02-.01.03-.02.05h0c-.06.13,0,.28.13.34.02,0,.03.01.05.02l.08.02Z"/>
      <path class="cls-8" d="M1766,366.03c-.03-.11-.03-.23,0-.34.13-.28.47-.4.75-.28h0c1.69.76,2.9,2.29,3.25,4.1.04.31-.19.59-.5.63h0c-.31.04-.59-.19-.63-.5h0c-.32-1.42-1.29-2.6-2.62-3.19-.14-.1-.24-.26-.26-.44Z"/>
      <path class="cls-8" d="M1774.17,361.09c2.9.36,4.32,3.97,4.32,3.97,3.5,1.28,6.88,2.86,10.11,4.72,2.01,1.64,2.92,4.27,2.34,6.8-.1.95-2.44,1.82-2.44,1.82,0,0-4.28,10.11-5.45,12.91l.59,9.34c7.87-4.98,14.18-12.08,18.18-20.48,6.76-14.08-21.46-26.47-21.46-26.47l-6.21,7.4Z"/>
      <path class="cls-6" d="M1792.28,399.62c-2.64,1.44-5.74,1.79-8.63.95-3.83-1.15-3.61-5.08-.77-7.6,2.54-2.18,7.63-4.34,10.59-1.8,2.12,1.81,2.37,5.01.56,7.13-.48.56-1.08,1.01-1.75,1.32Z"/>
      <path class="cls-11" d="M1782.62,414.89l-15.77,4.54-6.8,9.22,1.84-11.28s-1.69-2.6,1.11-6.66l-9.6,1.98-5.79,9.68,11.26-2.64.77,11.24,6.56-7.73,5.37,8.49,15.98-10.13-4.96-6.7Z"/>
      <path class="cls-9" d="M1782.62,414.89l-15.77,4.54-6.8,9.22,1.84-11.28s-1.69-2.6,1.11-6.66l-9.6,1.98-5.79,9.68,11.26-2.64.77,11.24,6.56-7.73,5.37,8.49,15.98-10.13-4.96-6.7Z"/>
      <polygon class="cls-2" points="1716.45 490.6 1713.99 500.4 1778.87 513.7 1779.84 502.82 1716.45 490.6"/>
      <path class="cls-12" d="M1745.42,495.74c-.52-.73-14.95-3.85-16.32-2.82,0,0-2.8,9.66-2.32,10.67s14.52,2.97,15.86,3.25,3.29-10.29,2.78-11.11ZM1741.45,505.65c-1.07-.22-12.61-1.82-13.01-2.66s1.98-8.77,1.98-8.77c1.13-.85,12.99,1.71,13.41,2.3s-1.31,9.24-2.38,9.02v.1Z"/>
      <path class="cls-12" d="M1742.01,499.03l-2.88-.59c-.54-.1-1.08.22-1.23.75h0c-.16.57.17,1.16.73,1.32.03,0,.07.02.1.02l2.88.56c.58.11,1.14-.26,1.26-.84.11-.58-.26-1.14-.84-1.26l-.02.04Z"/>
      <path class="cls-8" d="M1778.87,513.7s1.25,73.37-.81,94.79c-2.06,21.42,51.4,138.63,51.4,138.63h-17.31s-52.45-85.83-64.47-112.24c-12.02-26.41-20.9-89.44-20.9-89.44l52.09-31.75Z"/>
      <path class="cls-11" d="M1796.64,425.95c-2.68-6.07-43.79,2.92-47.49,1.86s-42.3-17.21-42.3-17.21l-3.35,8.61s34.6,19.83,42.18,22.96,37.86,1.63,45.61-1.73c5.41-2.33,7.91-8.61,5.57-14.02-.07-.16-.14-.32-.22-.48Z"/>
    </g>
    <g id="freepik--Arrow--inject-74">
      <path class="cls-11" d="M1789.36,268.36l-12.45-79.32-65.6,46.38,21.81,9.24c-21.06,48.27-89.38,189.68-206.93,293.95-150.1,133.16-360.18,198.68-362.28,199.32l11.62,37.94c8.92-2.74,220.28-68.57,377.06-207.64,124.93-110.81,195.17-256.96,217.22-308.12l19.55,8.27Z"/>
      <path class="cls-4" d="M1777.47,254.48l-.56-65.44-65.6,46.38,21.81,9.24c-21.06,48.27-89.38,189.68-206.93,293.95-150.1,133.16-360.18,198.68-362.28,199.32l3.69,24.05c8.92-2.74,220.28-62.62,377.06-201.69,124.93-110.81,191.2-258.95,213.26-310.11l19.55,4.3Z"/>
      <path class="cls-8" d="M1766,271.71c-.31,0-.62-.04-.91-.14l-38.09-12.31c-1.59-.41-2.55-2.04-2.13-3.63.41-1.59,2.04-2.55,3.63-2.13.11.03.22.07.33.11l38.09,12.29c1.57.5,2.43,2.17,1.94,3.73-.39,1.24-1.55,2.08-2.85,2.08h0Z"/>
      <path class="cls-4" d="M1766,271.71c-.31,0-.62-.04-.91-.14l-38.09-12.31c-1.59-.41-2.55-2.04-2.13-3.63.41-1.59,2.04-2.55,3.63-2.13.11.03.22.07.33.11l38.09,12.29c1.57.5,2.43,2.17,1.94,3.73-.39,1.24-1.55,2.08-2.85,2.08h0Z"/>
    </g>
  </g>
</svg>